# 3ds Max Wavefront OBJ Exporter v0.99 - (c)2007 guruware
# File Created: 08.11.2022 01:44:21

mtllib arm.mtl

#
# object Cylinder001
#

v  0.000 0.000 -0.000
v  8.090 0.000 -5.878
v  10.000 0.000 -0.000
v  3.090 0.000 -9.511
v  -3.090 0.000 -9.511
v  -8.090 0.000 -5.878
v  -10.000 0.000 0.000
v  -8.090 0.000 5.878
v  -3.090 0.000 9.511
v  3.090 0.000 9.511
v  8.090 0.000 5.878
v  8.090 20.000 -5.878
v  10.000 20.000 -0.000
v  3.090 20.000 -9.511
v  -3.090 20.000 -9.511
v  -8.090 20.000 -5.878
v  -10.000 20.000 0.000
v  -8.090 20.000 5.878
v  -3.090 20.000 9.511
v  3.090 20.000 9.511
v  8.090 20.000 5.878
v  0.000 20.000 -0.000
# 22 vertices

vn 0.000 -1.000 -0.000
vn 1.000 0.000 -0.000
vn 0.809 0.000 -0.588
vn 0.309 0.000 -0.951
vn -0.309 0.000 -0.951
vn -0.809 0.000 -0.588
vn -1.000 0.000 0.000
vn -0.809 0.000 0.588
vn -0.309 0.000 0.951
vn 0.309 0.000 0.951
vn 0.809 0.000 0.588
vn 0.000 1.000 -0.000
# 12 vertex normals

vt 0.500 0.000 0.000
vt 0.850 0.000 1.000
vt 0.750 0.000 1.000
vt 0.950 0.000 1.000
vt 0.050 0.000 1.000
vt -0.050 0.000 1.000
vt 0.150 0.000 1.000
vt 0.250 0.000 1.000
vt 0.350 0.000 1.000
vt 0.450 0.000 1.000
vt 0.550 0.000 1.000
vt 0.650 0.000 1.000
vt 0.850 1.000 1.000
vt 0.750 1.000 1.000
vt 0.950 1.000 1.000
vt 0.050 1.000 1.000
vt -0.050 1.000 1.000
vt 0.150 1.000 1.000
vt 0.250 1.000 1.000
vt 0.350 1.000 1.000
vt 0.450 1.000 1.000
vt 0.550 1.000 1.000
vt 0.650 1.000 1.000
vt 0.500 1.000 0.000
# 24 texture coords

o Cylinder001
g Cylinder001
usemtl wire_177088027
s 1
f 1/1/1 2/2/1 3/3/1 
f 1/1/1 4/4/1 2/2/1 
f 1/1/1 5/5/1 4/6/1 
f 1/1/1 6/7/1 5/5/1 
f 1/1/1 7/8/1 6/7/1 
f 1/1/1 8/9/1 7/8/1 
f 1/1/1 9/10/1 8/9/1 
f 1/1/1 10/11/1 9/10/1 
f 1/1/1 11/12/1 10/11/1 
f 1/1/1 3/3/1 11/12/1 
s 8
f 3/3/2 12/13/3 13/14/2 
f 3/3/2 2/2/3 12/13/3 
f 2/2/3 14/15/4 12/13/3 
f 2/2/3 4/4/4 14/15/4 
f 4/6/4 15/16/5 14/17/4 
f 4/6/4 5/5/5 15/16/5 
f 5/5/5 16/18/6 15/16/5 
f 5/5/5 6/7/6 16/18/6 
f 6/7/6 17/19/7 16/18/6 
f 6/7/6 7/8/7 17/19/7 
f 7/8/7 18/20/8 17/19/7 
f 7/8/7 8/9/8 18/20/8 
f 8/9/8 19/21/9 18/20/8 
f 8/9/8 9/10/9 19/21/9 
f 9/10/9 20/22/10 19/21/9 
f 9/10/9 10/11/10 20/22/10 
f 10/11/10 21/23/11 20/22/10 
f 10/11/10 11/12/11 21/23/11 
f 11/12/11 13/14/2 21/23/11 
f 11/12/11 3/3/2 13/14/2 
s 1
f 22/24/12 13/14/12 12/13/12 
f 22/24/12 12/13/12 14/15/12 
f 22/24/12 14/17/12 15/16/12 
f 22/24/12 15/16/12 16/18/12 
f 22/24/12 16/18/12 17/19/12 
f 22/24/12 17/19/12 18/20/12 
f 22/24/12 18/20/12 19/21/12 
f 22/24/12 19/21/12 20/22/12 
f 22/24/12 20/22/12 21/23/12 
f 22/24/12 21/23/12 13/14/12 
# 40 faces

