# 3ds Max Wavefront OBJ Exporter v0.99 - (c)2007 guruware
# File Created: 30.11.2022 00:16:57

mtllib circle.mtl

#
# object Cylinder001
#

v  38.846 0.000 -0.000
v  38.099 6.908 -7.578
v  38.846 6.908 -0.000
v  38.099 0.000 -7.578
v  35.889 6.908 -14.866
v  35.889 0.000 -14.866
v  32.299 6.908 -21.581
v  32.299 0.000 -21.581
v  27.468 6.908 -27.468
v  27.468 0.000 -27.468
v  21.581 6.908 -32.299
v  21.581 0.000 -32.299
v  14.866 6.908 -35.889
v  14.866 0.000 -35.889
v  7.578 6.908 -38.099
v  7.578 0.000 -38.099
v  0.000 6.908 -38.846
v  0.000 0.000 -38.846
v  -7.578 6.908 -38.099
v  -7.578 0.000 -38.099
v  -14.866 6.908 -35.889
v  -14.866 0.000 -35.889
v  -21.581 6.908 -32.299
v  -21.581 0.000 -32.299
v  -27.468 6.908 -27.468
v  -27.468 0.000 -27.468
v  -32.299 6.908 -21.581
v  -32.299 0.000 -21.581
v  -35.889 6.908 -14.866
v  -35.889 0.000 -14.866
v  -38.099 6.908 -7.578
v  -38.099 0.000 -7.578
v  -38.846 6.908 0.000
v  -38.846 0.000 0.000
v  -38.099 6.908 7.578
v  -38.099 0.000 7.578
v  -35.889 6.908 14.866
v  -35.889 0.000 14.866
v  -32.299 6.908 21.581
v  -32.299 0.000 21.581
v  -27.468 6.908 27.468
v  -27.468 0.000 27.468
v  -21.581 6.908 32.299
v  -21.581 0.000 32.299
v  -14.866 6.908 35.889
v  -14.866 0.000 35.889
v  -7.578 6.908 38.099
v  -7.578 0.000 38.099
v  0.000 6.908 38.846
v  0.000 0.000 38.846
v  7.578 6.908 38.099
v  7.578 0.000 38.099
v  14.866 6.908 35.889
v  14.866 0.000 35.889
v  21.581 6.908 32.299
v  21.581 0.000 32.299
v  27.468 6.908 27.468
v  27.468 0.000 27.468
v  32.299 6.908 21.581
v  32.299 0.000 21.581
v  35.889 6.908 14.866
v  35.889 0.000 14.866
v  38.099 6.908 7.578
v  38.099 0.000 7.578
# 64 vertices

vn 1.000 0.000 -0.000
vn 0.981 0.000 -0.195
vn 0.924 0.000 -0.383
vn 0.831 0.000 -0.556
vn 0.707 0.000 -0.707
vn 0.556 0.000 -0.831
vn 0.383 0.000 -0.924
vn 0.195 0.000 -0.981
vn 0.000 0.000 -1.000
vn -0.195 0.000 -0.981
vn -0.383 0.000 -0.924
vn -0.556 0.000 -0.831
vn -0.707 0.000 -0.707
vn -0.831 0.000 -0.556
vn -0.924 0.000 -0.383
vn -0.981 0.000 -0.195
vn -1.000 0.000 0.000
vn -0.981 0.000 0.195
vn -0.924 0.000 0.383
vn -0.831 0.000 0.556
vn -0.707 0.000 0.707
vn -0.556 0.000 0.831
vn -0.383 0.000 0.924
vn -0.195 0.000 0.981
vn 0.000 0.000 1.000
vn 0.195 0.000 0.981
vn 0.383 0.000 0.924
vn 0.556 0.000 0.831
vn 0.707 0.000 0.707
vn 0.831 0.000 0.556
vn 0.924 0.000 0.383
vn 0.981 0.000 0.195
# 32 vertex normals

vt 0.750 0.000 1.000
vt 0.781 1.000 1.000
vt 0.750 1.000 1.000
vt 0.781 0.000 1.000
vt 0.812 1.000 1.000
vt 0.812 0.000 1.000
vt 0.844 1.000 1.000
vt 0.844 0.000 1.000
vt 0.875 1.000 1.000
vt 0.875 0.000 1.000
vt 0.906 1.000 1.000
vt 0.906 0.000 1.000
vt 0.938 1.000 1.000
vt 0.938 0.000 1.000
vt 0.969 1.000 1.000
vt 0.969 0.000 1.000
vt 1.000 1.000 1.000
vt 1.000 0.000 1.000
vt -0.000 0.000 1.000
vt 0.031 1.000 1.000
vt -0.000 1.000 1.000
vt 0.031 0.000 1.000
vt 0.062 1.000 1.000
vt 0.062 0.000 1.000
vt 0.094 1.000 1.000
vt 0.094 0.000 1.000
vt 0.125 1.000 1.000
vt 0.125 0.000 1.000
vt 0.156 1.000 1.000
vt 0.156 0.000 1.000
vt 0.188 1.000 1.000
vt 0.188 0.000 1.000
vt 0.219 1.000 1.000
vt 0.219 0.000 1.000
vt 0.250 1.000 1.000
vt 0.250 0.000 1.000
vt 0.281 1.000 1.000
vt 0.281 0.000 1.000
vt 0.313 1.000 1.000
vt 0.313 0.000 1.000
vt 0.344 1.000 1.000
vt 0.344 0.000 1.000
vt 0.375 1.000 1.000
vt 0.375 0.000 1.000
vt 0.406 1.000 1.000
vt 0.406 0.000 1.000
vt 0.438 1.000 1.000
vt 0.438 0.000 1.000
vt 0.469 1.000 1.000
vt 0.469 0.000 1.000
vt 0.500 1.000 1.000
vt 0.500 0.000 1.000
vt 0.531 1.000 1.000
vt 0.531 0.000 1.000
vt 0.563 1.000 1.000
vt 0.563 0.000 1.000
vt 0.594 1.000 1.000
vt 0.594 0.000 1.000
vt 0.625 1.000 1.000
vt 0.625 0.000 1.000
vt 0.656 1.000 1.000
vt 0.656 0.000 1.000
vt 0.688 1.000 1.000
vt 0.688 0.000 1.000
vt 0.719 1.000 1.000
vt 0.719 0.000 1.000
# 66 texture coords

o Cylinder001
g Cylinder001
usemtl wire_028149177
s 8
f 1/1/1 2/2/2 3/3/1 
f 1/1/1 4/4/2 2/2/2 
f 4/4/2 5/5/3 2/2/2 
f 4/4/2 6/6/3 5/5/3 
f 6/6/3 7/7/4 5/5/3 
f 6/6/3 8/8/4 7/7/4 
f 8/8/4 9/9/5 7/7/4 
f 8/8/4 10/10/5 9/9/5 
f 10/10/5 11/11/6 9/9/5 
f 10/10/5 12/12/6 11/11/6 
f 12/12/6 13/13/7 11/11/6 
f 12/12/6 14/14/7 13/13/7 
f 14/14/7 15/15/8 13/13/7 
f 14/14/7 16/16/8 15/15/8 
f 16/16/8 17/17/9 15/15/8 
f 16/16/8 18/18/9 17/17/9 
f 18/19/9 19/20/10 17/21/9 
f 18/19/9 20/22/10 19/20/10 
f 20/22/10 21/23/11 19/20/10 
f 20/22/10 22/24/11 21/23/11 
f 22/24/11 23/25/12 21/23/11 
f 22/24/11 24/26/12 23/25/12 
f 24/26/12 25/27/13 23/25/12 
f 24/26/12 26/28/13 25/27/13 
f 26/28/13 27/29/14 25/27/13 
f 26/28/13 28/30/14 27/29/14 
f 28/30/14 29/31/15 27/29/14 
f 28/30/14 30/32/15 29/31/15 
f 30/32/15 31/33/16 29/31/15 
f 30/32/15 32/34/16 31/33/16 
f 32/34/16 33/35/17 31/33/16 
f 32/34/16 34/36/17 33/35/17 
f 34/36/17 35/37/18 33/35/17 
f 34/36/17 36/38/18 35/37/18 
f 36/38/18 37/39/19 35/37/18 
f 36/38/18 38/40/19 37/39/19 
f 38/40/19 39/41/20 37/39/19 
f 38/40/19 40/42/20 39/41/20 
f 40/42/20 41/43/21 39/41/20 
f 40/42/20 42/44/21 41/43/21 
f 42/44/21 43/45/22 41/43/21 
f 42/44/21 44/46/22 43/45/22 
f 44/46/22 45/47/23 43/45/22 
f 44/46/22 46/48/23 45/47/23 
f 46/48/23 47/49/24 45/47/23 
f 46/48/23 48/50/24 47/49/24 
f 48/50/24 49/51/25 47/49/24 
f 48/50/24 50/52/25 49/51/25 
f 50/52/25 51/53/26 49/51/25 
f 50/52/25 52/54/26 51/53/26 
f 52/54/26 53/55/27 51/53/26 
f 52/54/26 54/56/27 53/55/27 
f 54/56/27 55/57/28 53/55/27 
f 54/56/27 56/58/28 55/57/28 
f 56/58/28 57/59/29 55/57/28 
f 56/58/28 58/60/29 57/59/29 
f 58/60/29 59/61/30 57/59/29 
f 58/60/29 60/62/30 59/61/30 
f 60/62/30 61/63/31 59/61/30 
f 60/62/30 62/64/31 61/63/31 
f 62/64/31 63/65/32 61/63/31 
f 62/64/31 64/66/32 63/65/32 
f 64/66/32 3/3/1 63/65/32 
f 64/66/32 1/1/1 3/3/1 
# 64 faces

