# 3ds Max Wavefront OBJ Exporter v0.99 - (c)2007 guruware
# File Created: 08.11.2022 01:51:31

mtllib plane.mtl

#
# object Box001
#

v  -5.000 0.000 5.000
v  -5.000 0.000 1.667
v  -1.667 0.000 1.667
v  -1.667 0.000 5.000
v  1.667 0.000 1.667
v  1.667 0.000 5.000
v  5.000 0.000 1.667
v  5.000 0.000 5.000
v  -5.000 0.000 -1.667
v  -1.667 0.000 -1.667
v  1.667 0.000 -1.667
v  5.000 0.000 -1.667
v  -5.000 0.000 -5.000
v  -1.667 0.000 -5.000
v  1.667 0.000 -5.000
v  5.000 0.000 -5.000
v  -5.000 1.000 5.000
v  -1.667 1.000 5.000
v  -1.667 1.000 1.667
v  -5.000 1.000 1.667
v  1.667 1.000 5.000
v  1.667 1.000 1.667
v  5.000 1.000 5.000
v  5.000 1.000 1.667
v  -1.667 1.000 -1.667
v  -5.000 1.000 -1.667
v  1.667 1.000 -1.667
v  5.000 1.000 -1.667
v  -1.667 1.000 -5.000
v  -5.000 1.000 -5.000
v  1.667 1.000 -5.000
v  5.000 1.000 -5.000
# 32 vertices

vn 0.000 -1.000 -0.000
vn 0.000 1.000 -0.000
vn 0.000 0.000 1.000
vn 1.000 0.000 -0.000
vn 0.000 0.000 -1.000
vn -1.000 0.000 -0.000
# 6 vertex normals

vt 1.000 0.000 0.000
vt 1.000 0.333 0.000
vt 0.667 0.333 0.000
vt 0.667 0.000 0.000
vt 0.333 0.333 0.000
vt 0.333 0.000 0.000
vt 0.000 0.333 0.000
vt 0.000 0.000 0.000
vt 1.000 0.667 0.000
vt 0.667 0.667 0.000
vt 0.333 0.667 0.000
vt 0.000 0.667 0.000
vt 1.000 1.000 0.000
vt 0.667 1.000 0.000
vt 0.333 1.000 0.000
vt 0.000 1.000 0.000
# 16 texture coords

o Box001
g Box001
usemtl wire_153228214
s 2
f 1/1/1 2/2/1 3/3/1 
f 3/3/1 4/4/1 1/1/1 
f 4/4/1 3/3/1 5/5/1 
f 5/5/1 6/6/1 4/4/1 
f 6/6/1 5/5/1 7/7/1 
f 7/7/1 8/8/1 6/6/1 
f 2/2/1 9/9/1 10/10/1 
f 10/10/1 3/3/1 2/2/1 
f 3/3/1 10/10/1 11/11/1 
f 11/11/1 5/5/1 3/3/1 
f 5/5/1 11/11/1 12/12/1 
f 12/12/1 7/7/1 5/5/1 
f 9/9/1 13/13/1 14/14/1 
f 14/14/1 10/10/1 9/9/1 
f 10/10/1 14/14/1 15/15/1 
f 15/15/1 11/11/1 10/10/1 
f 11/11/1 15/15/1 16/16/1 
f 16/16/1 12/12/1 11/11/1 
s 4
f 17/8/2 18/6/2 19/5/2 
f 19/5/2 20/7/2 17/8/2 
f 18/6/2 21/4/2 22/3/2 
f 22/3/2 19/5/2 18/6/2 
f 21/4/2 23/1/2 24/2/2 
f 24/2/2 22/3/2 21/4/2 
f 20/7/2 19/5/2 25/11/2 
f 25/11/2 26/12/2 20/7/2 
f 19/5/2 22/3/2 27/10/2 
f 27/10/2 25/11/2 19/5/2 
f 22/3/2 24/2/2 28/9/2 
f 28/9/2 27/10/2 22/3/2 
f 26/12/2 25/11/2 29/15/2 
f 29/15/2 30/16/2 26/12/2 
f 25/11/2 27/10/2 31/14/2 
f 31/14/2 29/15/2 25/11/2 
f 27/10/2 28/9/2 32/13/2 
f 32/13/2 31/14/2 27/10/2 
s 8
f 1/8/3 4/6/3 18/15/3 
f 18/15/3 17/16/3 1/8/3 
f 4/6/3 6/4/3 21/14/3 
f 21/14/3 18/15/3 4/6/3 
f 6/4/3 8/1/3 23/13/3 
f 23/13/3 21/14/3 6/4/3 
s 16
f 8/8/4 7/6/4 24/15/4 
f 24/15/4 23/16/4 8/8/4 
f 7/6/4 12/4/4 28/14/4 
f 28/14/4 24/15/4 7/6/4 
f 12/4/4 16/1/4 32/13/4 
f 32/13/4 28/14/4 12/4/4 
s 32
f 16/8/5 15/6/5 31/15/5 
f 31/15/5 32/16/5 16/8/5 
f 15/6/5 14/4/5 29/14/5 
f 29/14/5 31/15/5 15/6/5 
f 14/4/5 13/1/5 30/13/5 
f 30/13/5 29/14/5 14/4/5 
s 64
f 13/8/6 9/6/6 26/15/6 
f 26/15/6 30/16/6 13/8/6 
f 9/6/6 2/4/6 20/14/6 
f 20/14/6 26/15/6 9/6/6 
f 2/4/6 1/1/6 17/13/6 
f 17/13/6 20/14/6 2/4/6 
# 60 faces

